<svg id="SvgjsSvg1001" width="288" height="288" xmlns="http://www.w3.org/2000/svg" version="1.1" xmlnsXlink="http://www.w3.org/1999/xlink" xmlnsSvgjs="http://svgjs.com/svgjs">
    <defs id="SvgjsDefs1002">
        <linearGradient id="grad1" x1="0%" y1="0%" x2="100%" y2="0%">
            <stop offset="0%" style="stop-color:rgb(0, 159, 253);stop-opacity:1" />
            <stop offset="100%" style="stop-color:rgb(42, 42, 114);stop-opacity:1" />
        </linearGradient>
    </defs>
    <g id="SvgjsG1008" transform="matrix(0.9167,0,0,0.9167,11.995200000000011,11.995200000000011)">
        <svg xmlns="http://www.w3.org/2000/svg" width="288" height="288" viewBox="0 0 24 24">
            <path fill="none" d="M0 0h24v24H0z"></path>
            <path d="M19 3H5c-1.1 0-2 .9-2 2v14c0 1.1.9 2 2 2h14c1.1 0 2-.9 2-2V5c0-1.1-.9-2-2-2zM9 17H7v-5h2v5zm4 0h-2v-3h2v3zm0-5h-2v-2h2v2zm4 5h-2V7h2v10z" fill="url(#grad1)" class="color000 svgShape"></path>
        </svg>
    </g>
</svg>