<svg id="SvgjsSvg1012" width="288" height="288" xmlns="http://www.w3.org/2000/svg" version="1.1" xmlnsXlink="http://www.w3.org/1999/xlink" xmlnsSvgjs="http://svgjs.com/svgjs">
    <defs id="SvgjsDefs1013">
        <linearGradient id="grad1" x1="0%" y1="0%" x2="100%" y2="0%">
            <stop offset="0%" style="stop-color:rgb(42, 42, 114);stop-opacity:1" />
            <stop offset="100%" style="stop-color:rgb(0, 159, 253);stop-opacity:1" />
        </linearGradient>
    </defs>
    <g id="SvgjsG1014">
        <svg xmlns="http://www.w3.org/2000/svg" width="288" height="288" viewBox="0 0 24 24">
            <path fill="none" d="M0 0h24v24H0z"></path>
            <path d="M21 6h-2v9H6v2c0 .55.45 1 1 1h11l4 4V7c0-.55-.45-1-1-1zm-4 6V3c0-.55-.45-1-1-1H3c-.55 0-1 .45-1 1v14l4-4h10c.55 0 1-.45 1-1z" fill="url(#grad1)" class="color000 svgShape"></path>
        </svg>
    </g>
</svg>